<svg xmlns="http://www.w3.org/2000/svg" width="200" height="300" viewBox="0 0 200 300"><rect width="100%" height="100%" fill="#DDDDDD"/><path fill="#999999" d="M43.615 156.035h3.13q.86 0 1.45-.2.58-.21.94-.55.35-.35.5-.81.16-.46.16-.98 0-.54-.18-.97-.17-.43-.54-.73-.36-.31-.95-.47-.58-.16-1.39-.16h-3.12zm2.63-11.82h-2.63v4.81h2.46q1.59 0 2.4-.57.81-.58.81-1.83 0-1.3-.74-1.86-.73-.55-2.3-.55m-5.72-2.39h5.72q1.64 0 2.8.31t1.9.89q.74.57 1.09 1.39.34.82.34 1.84 0 .58-.17 1.12-.17.53-.53 1-.37.47-.92.85-.56.37-1.33.64 3.43.77 3.43 3.7 0 1.06-.41 1.96-.4.89-1.17 1.54t-1.9 1.02q-1.12.37-2.57.37h-6.28zm19.92 4.65q1.31 0 2.38.42 1.08.43 1.84 1.21.77.78 1.18 1.91t.41 2.52q0 1.4-.41 2.53-.41 1.12-1.18 1.92-.76.79-1.84 1.22-1.07.42-2.38.42-1.33 0-2.41-.42-1.08-.43-1.84-1.22-.77-.8-1.19-1.92-.42-1.13-.42-2.53 0-1.39.42-2.52t1.19-1.91q.76-.78 1.84-1.21 1.08-.42 2.41-.42m0 9.97q1.47 0 2.17-.99.71-.99.71-2.9t-.71-2.91q-.7-1-2.17-1-1.5 0-2.22 1.01-.72 1-.72 2.9t.72 2.89q.72 1 2.22 1m13.21-9.97q1.31 0 2.39.42 1.07.43 1.84 1.21.76.78 1.17 1.91.42 1.13.42 2.52 0 1.4-.42 2.53-.41 1.12-1.17 1.92-.77.79-1.84 1.22-1.08.42-2.39.42-1.32 0-2.4-.42-1.09-.43-1.85-1.22-.77-.8-1.18-1.92-.42-1.13-.42-2.53 0-1.39.42-2.52.41-1.13 1.18-1.91.76-.78 1.85-1.21 1.08-.42 2.4-.42m0 9.97q1.47 0 2.18-.99t.71-2.9-.71-2.91-2.18-1q-1.5 0-2.21 1.01-.72 1-.72 2.9t.72 2.89q.71 1 2.21 1m7.99-15.08h2.84v9.79h.53q.29 0 .46-.08.16-.07.33-.3l2.94-3.62q.18-.25.41-.37.22-.13.58-.13h2.59l-3.66 4.38q-.39.52-.85.8.24.17.43.4t.36.49l3.93 5.73h-2.56q-.34 0-.58-.11t-.4-.4l-3.01-4.47q-.16-.26-.34-.34-.17-.09-.51-.09h-.65v5.41h-2.84zm29.75 13.17q.25 0 .45.19l1.22 1.33q-1.01 1.25-2.49 1.92-1.48.66-3.55.66-1.85 0-3.33-.63t-2.52-1.76q-1.05-1.12-1.61-2.69-.55-1.56-.55-3.41 0-1.88.59-3.44.6-1.56 1.69-2.68 1.09-1.13 2.59-1.76 1.51-.62 3.34-.62 1.81 0 3.22.6 1.41.59 2.4 1.56l-1.03 1.44q-.1.13-.24.24-.14.1-.4.1-.17 0-.35-.1-.19-.09-.41-.24-.21-.14-.5-.31-.29-.18-.67-.32t-.88-.24-1.15-.1q-1.12 0-2.05.4-.92.39-1.59 1.15-.67.75-1.03 1.84-.37 1.08-.37 2.48t.4 2.49q.39 1.09 1.07 1.84t1.6 1.15q.92.39 1.98.39.63 0 1.14-.07t.94-.22q.44-.15.82-.38.39-.24.77-.58.11-.1.24-.17.12-.06.26-.06m8.57-8.06q1.31 0 2.39.42 1.07.43 1.84 1.21.76.78 1.17 1.91.42 1.13.42 2.52 0 1.4-.42 2.53-.41 1.12-1.17 1.92-.77.79-1.84 1.22-1.08.42-2.39.42-1.32 0-2.4-.42-1.09-.43-1.85-1.22-.76-.8-1.18-1.92-.42-1.13-.42-2.53 0-1.39.42-2.52t1.18-1.91 1.85-1.21q1.08-.42 2.4-.42m0 9.97q1.47 0 2.18-.99t.71-2.9-.71-2.91-2.18-1q-1.5 0-2.21 1.01-.72 1-.72 2.9t.72 2.89q.71 1 2.21 1m16.39-9.79h2.24l-4.68 11.8h-2.58l-4.68-11.8h2.35q.32 0 .53.15.22.15.28.38l2.28 6.3q.19.55.32 1.08.14.53.25 1.06.11-.53.25-1.06t.33-1.08l2.32-6.3q.09-.23.29-.38.21-.15.5-.15m5.99 4.54h5.36q0-.55-.16-1.04-.15-.49-.46-.85-.31-.37-.79-.58-.48-.22-1.11-.22-1.23 0-1.94.7-.71.71-.9 1.99m7.24 1.72h-7.3q.07.91.32 1.57.26.66.67 1.09t.98.64q.57.22 1.26.22t1.19-.17q.5-.16.88-.35.37-.2.65-.36t.55-.16q.35 0 .53.27l.81 1.03q-.47.55-1.05.93-.59.37-1.23.59-.64.23-1.3.32t-1.28.09q-1.23 0-2.29-.41-1.06-.4-1.84-1.2t-1.23-1.98-.45-2.73q0-1.21.39-2.27.39-1.07 1.12-1.86.73-.78 1.79-1.24 1.05-.46 2.37-.46 1.12 0 2.06.35.94.36 1.62 1.04.68.69 1.07 1.68.38 1 .38 2.27 0 .65-.14.87-.14.23-.53.23m5.3-5.55.18 1.34q.55-1.06 1.31-1.66.76-.61 1.79-.61.82 0 1.31.36l-.18 2.13q-.06.2-.17.29t-.29.09q-.17 0-.51-.06t-.66-.06q-.48 0-.84.14-.37.14-.66.4-.3.25-.52.62-.23.37-.42.84v7.27h-2.84v-11.8h1.67q.43 0 .6.16.18.15.23.55"/></svg>